<svg width="75" height="15" viewBox="0 0 75 15" fill="none" xmlns="http://www.w3.org/2000/svg">
<g clip-path="url(#clip0_77_27994)">
<path d="M5.24885 0.401855H8.93589L14.3339 14.608H10.5143L9.79274 12.3772H4.52866L3.80711 14.608H0.00390625L5.24885 0.401855ZM8.91676 9.74601L7.14977 3.87215H7.1115L5.34451 9.74601H8.91812H8.91676Z" fill="#010101"/>
<path d="M56.7143 10.049C56.1444 11.2117 55.1372 11.9754 53.731 11.9754C51.2602 11.9754 49.8923 10.012 49.8923 7.49461C49.8923 4.97724 51.2602 3.0138 53.675 3.0138C55.0812 3.0138 56.1266 3.85293 56.6582 5.15L59.4706 3.75832C58.4252 1.48912 56.4491 0.00146484 53.5028 0.00146484C49.0559 0.00146484 46.5469 3.30037 46.5469 7.49598C46.5469 11.7108 49.1133 14.9905 53.7501 14.9905C56.5434 14.9905 58.5209 13.5604 59.528 11.3858L56.7156 10.0504L56.7143 10.049Z" fill="#010101"/>
<path d="M67.7931 0.00415039C63.1563 0.00415039 60.5898 3.30305 60.5898 7.49867C60.5898 11.7135 63.1563 14.9932 67.7931 14.9932C72.4299 14.9932 74.9964 11.6943 74.9964 7.49867C74.9772 3.30305 72.4313 0.00415039 67.7931 0.00415039ZM67.7931 11.9795C65.3032 11.9795 63.9352 10.016 63.9352 7.49867C63.9352 4.9813 65.3032 3.01786 67.7931 3.01786C70.283 3.01786 71.651 4.9813 71.651 7.49867C71.6318 10.016 70.2639 11.9795 67.7931 11.9795Z" fill="#010101"/>
<path d="M45.8092 14.6189L43.1484 11.4722L45.3719 8.974L43.281 7.16276L41.3418 9.37437L37.9773 5.40773C37.7873 5.15956 37.5974 4.91139 37.4457 4.64539C37.294 4.3794 37.2175 4.11203 37.2175 3.82547C37.2175 3.46349 37.35 3.13854 37.6165 2.89174C37.883 2.64494 38.2246 2.51057 38.6619 2.51057C38.9844 2.51057 39.3083 2.60654 39.5926 2.81632C39.8782 3.02611 40.1433 3.34969 40.3715 3.84603L42.5567 2.49274C42.2342 1.80581 41.7395 1.21486 41.0931 0.739085C40.4467 0.261937 39.5912 0.0151367 38.5458 0.0151367C37.8802 0.0151367 37.2721 0.111115 36.7214 0.320895C36.1898 0.51148 35.7334 0.778848 35.3534 1.12163C34.9735 1.46441 34.6879 1.84558 34.4788 2.30353C34.2697 2.76148 34.1741 3.23726 34.1741 3.7528C34.1741 4.17236 34.2506 4.61111 34.4023 5.06907C34.554 5.52702 34.8013 5.98497 35.1239 6.42236C34.1358 7.01331 33.4129 7.70024 32.9756 8.46258C32.5383 9.22492 32.3101 10.0256 32.3101 10.8648C32.3101 11.4749 32.4235 12.0467 32.6517 12.543C32.8799 13.0572 33.2024 13.4767 33.6015 13.8401C34.0197 14.2021 34.5144 14.4886 35.1034 14.6984C35.6924 14.9082 36.3387 15.0042 37.0425 15.0042C37.8406 15.0042 38.5444 14.8904 39.1525 14.6422C39.7798 14.394 40.4071 14.0129 41.0535 13.4795L42.0224 14.6052H45.8051V14.6244L45.8092 14.6189ZM38.3586 12.0631C38.0538 12.2153 37.693 12.2921 37.2749 12.2921C36.6667 12.2921 36.1912 12.1399 35.8495 11.815C35.5079 11.49 35.3179 11.091 35.3179 10.5755C35.3179 10.1559 35.4136 9.77473 35.6227 9.41276C35.8317 9.05079 36.1734 8.68881 36.6872 8.32547L39.3097 11.3762C38.9872 11.6998 38.6633 11.9096 38.3599 12.0631" fill="#010101"/>
<path d="M24.5971 6.56079C25.115 5.69287 25.0521 5.34324 24.8594 5.31308C24.6709 5.28428 24.4659 5.29251 24.6709 4.40951C24.8485 3.6458 24.7242 3.32633 24.6094 3.13575C24.5014 2.95613 24.3675 2.86152 24.2636 2.88346C24.0245 2.93419 23.8427 3.49772 23.609 3.6458C23.5489 3.68419 23.2428 3.85695 23.3029 3.1426C23.3166 2.97395 23.2018 2.91637 23.0405 3.01646C22.8 3.16591 22.4597 3.55394 22.2739 4.28474C22.2629 4.32999 22.2178 4.3437 22.1973 4.28474C22.1673 4.19562 22.155 4.02697 22.2233 3.74041C22.2875 3.47441 22.3955 3.26052 22.2752 3.23172C22.1208 3.1947 21.9035 3.51692 21.7354 3.883C21.7108 3.93785 21.7026 3.95567 21.6849 4.00092C21.6671 4.04617 21.6152 4.07359 21.6111 3.98035C21.6083 3.91591 21.6234 3.81171 21.6575 3.68831C21.6726 3.63346 21.6439 3.61152 21.622 3.60604C21.5715 3.59233 21.51 3.61975 21.4321 3.67734C21.2585 3.80622 21.0904 4.04205 20.9702 4.3533H20.9688C20.9565 4.3862 20.9442 4.42048 20.9333 4.45613C20.9305 4.46436 20.9278 4.47121 20.9251 4.47944C20.921 4.49041 20.9182 4.50138 20.9141 4.51235C20.9087 4.53017 20.9046 4.54937 20.8991 4.56719C20.8923 4.5905 20.8854 4.61518 20.8786 4.63849C20.8759 4.64809 20.8745 4.65631 20.8718 4.66591C20.8608 4.7139 20.8499 4.76052 20.8403 4.80851C20.8308 4.86198 20.8226 4.91545 20.8144 4.96756C20.8144 4.97167 20.813 4.97578 20.813 4.9799C20.813 4.98264 20.8116 4.98675 20.8116 4.98949C20.7939 5.13483 20.787 5.27743 20.7911 5.41454C20.7925 5.43922 20.7925 5.46253 20.7939 5.48584C20.798 5.56125 20.6162 5.58182 20.6558 5.75183C20.7556 6.18236 20.9128 6.62112 20.9989 6.84735C21.0303 6.93099 20.9852 7.02286 20.9005 7.04891C20.5001 7.16682 19.43 7.50412 18.6798 7.9607C18.636 7.98675 18.6019 8.06079 18.6415 8.11838C18.6784 8.17322 18.7659 8.16637 18.8069 8.15266C19.6678 7.86609 20.8936 7.46299 21.4867 7.89352C21.9213 8.20887 21.965 8.96024 21.6931 9.77194C21.6029 10.0736 21.5004 10.3423 21.4061 10.6179H21.402C20.772 12.2893 21.0371 13.559 21.7272 14.6092H15.5435L17.5414 12.7747V2.36929L15.5435 0.407227H22.5363C23.6692 0.407227 24.6968 0.507318 25.6179 0.70613C26.539 0.904941 27.3289 1.19288 27.9876 1.56993C28.6462 1.94699 29.156 2.40494 29.5181 2.94516C29.8789 3.48538 30.0607 4.0969 30.0607 4.77971C30.0607 5.46253 29.8338 6.06308 29.3801 6.66637C28.9264 7.27103 28.3169 7.80028 27.5516 8.25549C28.1461 9.33593 28.813 10.3697 29.5496 11.3583C30.2861 12.3469 31.0378 13.4301 31.8031 14.6106H30.6169C27.8304 14.6106 24.2418 12.1111 23.8523 9.39763C23.8523 9.39763 23.8523 9.39214 23.8509 9.3894C23.8386 9.30165 23.8304 9.21527 23.8249 9.12752C23.8236 9.11106 23.8222 9.09598 23.8222 9.07953C23.8208 9.05896 23.8222 9.03703 23.8208 9.01646C23.8263 8.88072 23.8987 7.73035 24.5971 6.56079Z" fill="#DA3832"/>
</g>
<defs>
<clipPath id="clip0_77_27994">
<rect width="75" height="15" fill="white"/>
</clipPath>
</defs>
</svg>
