<svg xmlns="http://www.w3.org/2000/svg" width="58" height="58" viewBox="0 0 58 58" fill="none">
  <path d="M21.75 27.1875C31.7602 27.1875 39.875 23.5358 39.875 19.0312C39.875 14.5267 31.7602 10.875 21.75 10.875C11.7398 10.875 3.625 14.5267 3.625 19.0312C3.625 23.5358 11.7398 27.1875 21.75 27.1875Z" stroke="#6BB538" stroke-linecap="round" stroke-linejoin="round"/>
  <path d="M3.625 19.0312V28.0938C3.625 32.6023 11.7359 36.25 21.75 36.25C31.7641 36.25 39.875 32.6023 39.875 28.0938V19.0312" stroke="#6BB538" stroke-linecap="round" stroke-linejoin="round"/>
  <path d="M14.5 26.5078V35.5703" stroke="#6BB538" stroke-linecap="round" stroke-linejoin="round"/>
  <path d="M39.875 21.9086C48.1445 22.6789 54.375 25.964 54.375 29.9062C54.375 34.4148 46.2641 38.0625 36.25 38.0625C31.8094 38.0625 27.7312 37.3375 24.582 36.1594" stroke="#6BB538" stroke-linecap="round" stroke-linejoin="round"/>
  <path d="M18.125 36.0914V38.9688C18.125 43.4773 26.2359 47.125 36.25 47.125C46.2641 47.125 54.375 43.4773 54.375 38.9688V29.9062" stroke="#6BB538" stroke-linecap="round" stroke-linejoin="round"/>
  <path d="M43.5 37.3828V46.4453" stroke="#6BB538" stroke-linecap="round" stroke-linejoin="round"/>
  <path d="M29 26.5078V46.4453" stroke="#6BB538" stroke-linecap="round" stroke-linejoin="round"/>
</svg>