<svg xmlns="http://www.w3.org/2000/svg" width="58" height="58" viewBox="0 0 58 58" fill="none">
<path d="M51.0898 29H43.8398C42.8784 29 41.9564 29.3819 41.2766 30.0618C40.5968 30.7416 40.2148 31.6636 40.2148 32.625V41.6875C40.2148 42.6489 40.5968 43.571 41.2766 44.2508C41.9564 44.9306 42.8784 45.3125 43.8398 45.3125H47.4648C48.4263 45.3125 49.3483 44.9306 50.0281 44.2508C50.7079 43.571 51.0898 42.6489 51.0898 41.6875V29ZM51.0898 29C51.0899 26.1285 50.5214 23.2853 49.4171 20.6346C48.3127 17.9839 46.6944 15.5781 44.6555 13.556C42.6166 11.534 40.1974 9.93565 37.5376 8.85333C34.8778 7.77101 32.0301 7.22609 29.1586 7.25002C26.289 7.2291 23.4437 7.77623 20.7865 8.8599C18.1294 9.94357 15.7129 11.5423 13.6764 13.5641C11.6399 15.5859 10.0236 17.9906 8.92066 20.6399C7.81772 23.2891 7.24992 26.1304 7.25 29V41.6875C7.25 42.6489 7.63192 43.571 8.31174 44.2508C8.99156 44.9306 9.91359 45.3125 10.875 45.3125H14.5C15.4614 45.3125 16.3834 44.9306 17.0633 44.2508C17.7431 43.571 18.125 42.6489 18.125 41.6875V32.625C18.125 31.6636 17.7431 30.7416 17.0633 30.0618C16.3834 29.3819 15.4614 29 14.5 29H7.25" stroke="#22ABE3" stroke-linecap="round" stroke-linejoin="round"/>
<path d="M51.0898 41.6875V47.125C51.0898 49.0478 50.326 50.8919 48.9664 52.2515C47.6067 53.6112 45.7627 54.375 43.8398 54.375H30.8125" stroke="#22ABE3" stroke-linecap="round" stroke-linejoin="round"/>
</svg>