<svg xmlns="http://www.w3.org/2000/svg" width="58" height="58" viewBox="0 0 58 58" fill="none">
<path d="M41.6875 41.6875H15.8141L9.49297 6.93281C9.41901 6.5166 9.2019 6.13934 8.87919 5.86628C8.55649 5.59322 8.14849 5.44155 7.72578 5.4375H3.625" stroke="#22ABE3" stroke-linecap="round" stroke-linejoin="round"/>
<path d="M18.125 50.75C20.6275 50.75 22.6562 48.7213 22.6562 46.2188C22.6562 43.7162 20.6275 41.6875 18.125 41.6875C15.6225 41.6875 13.5938 43.7162 13.5938 46.2188C13.5938 48.7213 15.6225 50.75 18.125 50.75Z" stroke="#22ABE3" stroke-linecap="round" stroke-linejoin="round"/>
<path d="M41.6875 50.75C44.19 50.75 46.2188 48.7213 46.2188 46.2188C46.2188 43.7162 44.19 41.6875 41.6875 41.6875C39.185 41.6875 37.1562 43.7162 37.1562 46.2188C37.1562 48.7213 39.185 50.75 41.6875 50.75Z" stroke="#22ABE3" stroke-linecap="round" stroke-linejoin="round"/>
<path d="M14.1602 32.625H42.6164C43.4637 32.6276 44.2847 32.3314 44.9353 31.7886C45.5858 31.2458 46.0242 30.4911 46.1734 29.657L48.9375 14.5H10.875" stroke="#22ABE3" stroke-linecap="round" stroke-linejoin="round"/>
</svg>