<svg xmlns="http://www.w3.org/2000/svg" width="58" height="58" viewBox="0 0 58 58" fill="none">
  <path d="M21.75 12.6875V45.3125" stroke="#6BB538" stroke-linecap="round" stroke-linejoin="round"/>
  <path d="M5.43753 37.8812C5.43522 37.4638 5.57888 37.0587 5.84366 36.736C6.10844 36.4133 6.47769 36.1933 6.88753 36.1141C8.51769 35.7679 9.97952 34.8725 11.0284 33.5775C12.0773 32.2825 12.6497 30.6665 12.6497 29C12.6497 27.3335 12.0773 25.7175 11.0284 24.4225C9.97952 23.1275 8.51769 22.2321 6.88753 21.8859C6.47769 21.8067 6.10844 21.5867 5.84366 21.264C5.57888 20.9413 5.43522 20.5362 5.43753 20.1188V14.5C5.43753 14.0193 5.62849 13.5583 5.9684 13.2184C6.30831 12.8785 6.76932 12.6875 7.25003 12.6875H50.75C51.2307 12.6875 51.6917 12.8785 52.0317 13.2184C52.3716 13.5583 52.5625 14.0193 52.5625 14.5V20.1188C52.5648 20.5362 52.4212 20.9413 52.1564 21.264C51.8916 21.5867 51.5224 21.8067 51.1125 21.8859C49.4824 22.2321 48.0205 23.1275 46.9716 24.4225C45.9227 25.7175 45.3504 27.3335 45.3504 29C45.3504 30.6665 45.9227 32.2825 46.9716 33.5775C48.0205 34.8725 49.4824 35.7679 51.1125 36.1141C51.5224 36.1933 51.8916 36.4133 52.1564 36.736C52.4212 37.0587 52.5648 37.4638 52.5625 37.8812V43.5C52.5625 43.9807 52.3716 44.4417 52.0317 44.7816C51.6917 45.1215 51.2307 45.3125 50.75 45.3125H7.25003C6.76932 45.3125 6.30831 45.1215 5.9684 44.7816C5.62849 44.4417 5.43753 43.9807 5.43753 43.5V37.8812Z" stroke="#6BB538" stroke-linecap="round" stroke-linejoin="round"/>
</svg>