<svg xmlns="http://www.w3.org/2000/svg" width="58" height="58" viewBox="0 0 58 58" fill="none">
  <path d="M29 40.7812C34.0051 40.7812 38.0625 36.7238 38.0625 31.7188C38.0625 26.7137 34.0051 22.6562 29 22.6562C23.9949 22.6562 19.9375 26.7137 19.9375 31.7188C19.9375 36.7238 23.9949 40.7812 29 40.7812Z" stroke="#D8252B" stroke-linecap="round" stroke-linejoin="round"/>
  <path d="M44.4062 26.2813C46.5172 26.2777 48.5998 26.7675 50.488 27.7116C52.3761 28.6557 54.0175 30.0279 55.2812 31.7188" stroke="#D8252B" stroke-linecap="round" stroke-linejoin="round"/>
  <path d="M2.71875 31.7188C3.98251 30.0279 5.62392 28.6557 7.51204 27.7116C9.40016 26.7675 11.4828 26.2777 13.5938 26.2813" stroke="#D8252B" stroke-linecap="round" stroke-linejoin="round"/>
  <path d="M15.95 48.9375C17.1435 46.4931 18.9997 44.4331 21.3069 42.9921C23.6141 41.5511 26.2797 40.787 29 40.787C31.7202 40.787 34.3858 41.5511 36.693 42.9921C39.0002 44.4331 40.8564 46.4931 42.05 48.9375" stroke="#D8252B" stroke-linecap="round" stroke-linejoin="round"/>
  <path d="M13.5938 26.2812C12.2177 26.2826 10.8697 25.8924 9.70721 25.1561C8.54471 24.4199 7.61575 23.368 7.02888 22.1233C6.442 20.8787 6.22145 19.4928 6.39298 18.1275C6.56452 16.7622 7.12106 15.4739 7.99758 14.4131C8.87411 13.3523 10.0344 12.5629 11.3429 12.1371C12.6514 11.7113 14.0541 11.6667 15.387 12.0084C16.7199 12.3502 17.9281 13.0642 18.8703 14.0671C19.8125 15.0699 20.4498 16.3202 20.7078 17.6719" stroke="#D8252B" stroke-linecap="round" stroke-linejoin="round"/>
  <path d="M37.2922 17.6719C37.5502 16.3202 38.1876 15.0699 39.1298 14.0671C40.072 13.0642 41.2801 12.3502 42.6131 12.0084C43.946 11.6667 45.3487 11.7113 46.6572 12.1371C47.9657 12.5629 49.126 13.3523 50.0025 14.4131C50.879 15.4739 51.4356 16.7622 51.6071 18.1275C51.7786 19.4928 51.5581 20.8787 50.9712 22.1233C50.3843 23.368 49.4554 24.4199 48.2929 25.1561C47.1304 25.8924 45.7823 26.2826 44.4063 26.2812" stroke="#D8252B" stroke-linecap="round" stroke-linejoin="round"/>
</svg>