<svg xmlns="http://www.w3.org/2000/svg" width="58" height="58" viewBox="0 0 58 58" fill="none">
  <path d="M10.2861 40.1016C7.58744 35.5486 6.6435 30.1671 7.63144 24.9675C8.61938 19.7679 11.4713 15.1077 15.6517 11.8617C19.8321 8.61579 25.0536 7.00736 30.3359 7.33841C35.6182 7.66945 40.598 9.91719 44.3405 13.6597C48.0829 17.4021 50.3307 22.3819 50.6617 27.6642C50.9927 32.9465 49.3843 38.168 46.1384 42.3484C42.8924 46.5288 38.2322 49.3807 33.0326 50.3687C27.833 51.3566 22.4515 50.4127 17.8986 47.7141V47.7141L10.3767 49.8437C10.0685 49.9339 9.74176 49.9394 9.43069 49.8599C9.11962 49.7803 8.83568 49.6185 8.60864 49.3915C8.3816 49.1644 8.21981 48.8805 8.14024 48.5694C8.06067 48.2583 8.06624 47.9316 8.15637 47.6234L10.2861 40.1016Z" stroke="#6BB538" stroke-linecap="round" stroke-linejoin="round"/>
  <path d="M34.4602 41.6875C32.0754 41.6935 29.7128 41.2281 27.5083 40.3183C25.3039 39.4084 23.3009 38.0718 21.6146 36.3855C19.9282 34.6991 18.5917 32.6962 17.6818 30.4917C16.7719 28.2872 16.3066 25.9247 16.3126 23.5398C16.3186 21.8613 16.9896 20.2536 18.1786 19.0688C19.3676 17.884 20.9778 17.2187 22.6563 17.2187V17.2187C22.9332 17.2165 23.2057 17.289 23.4449 17.4286C23.6841 17.5681 23.8813 17.7696 24.0157 18.0117L26.6665 22.6336C26.8241 22.9145 26.905 23.2321 26.901 23.5542C26.897 23.8763 26.8083 24.1918 26.6438 24.4687L24.5141 28.0258C25.605 30.4525 27.5476 32.3951 29.9743 33.4859L33.5313 31.3562C33.8083 31.1917 34.1237 31.103 34.4459 31.099C34.768 31.095 35.0855 31.1759 35.3665 31.3336L39.9883 33.9844C40.2305 34.1188 40.4319 34.3159 40.5715 34.5552C40.711 34.7944 40.7835 35.0668 40.7813 35.3437C40.7754 37.0205 40.1082 38.6272 38.9247 39.8149C37.7412 41.0027 36.1369 41.6756 34.4602 41.6875V41.6875Z" stroke="#6BB538" stroke-linecap="round" stroke-linejoin="round"/>
</svg>