<svg width="320" height="269" viewBox="0 0 320 269" fill="none" xmlns="http://www.w3.org/2000/svg">
<g clip-path="url(#clip0_77_27882)">
<path d="M278.045 241.033L277.529 239.022L271.695 240.517L272.211 242.528L278.045 241.033Z" fill="#5793CE"/>
<path d="M275.035 243.926L274.52 241.915L268.685 243.41L269.2 245.42L275.035 243.926Z" fill="#5793CE"/>
<path d="M272.049 246.826L271.534 244.815L265.699 246.309L266.214 248.32L272.049 246.826Z" fill="#5793CE"/>
<path d="M269.119 249.745L268.603 247.735L262.769 249.23L263.284 251.241L269.119 249.745Z" fill="#5793CE"/>
<path d="M148.84 59.8381L94.0446 91.9742C80.1501 87.7141 62.4504 89.0291 50.7738 95.8758C36.5641 104.211 36.6619 117.557 50.9804 125.697C54.1985 127.523 57.8515 128.936 61.7546 129.925C64.5161 130.62 67.3863 131.12 70.3218 131.403C81.7157 132.511 93.8815 130.479 102.644 125.338C113.266 119.111 115.887 110.08 110.559 102.516L118.115 98.082L117.898 93.2892L125.856 93.2349L125.661 88.7465L133.619 88.6922L133.423 84.2038L141.382 84.1494L141.186 79.661L149.144 79.6067L148.949 75.1183L157.44 75.0639L160.027 73.5424L162.887 61.74L148.829 59.8599L148.84 59.8381ZM71.7352 121.317C68.0387 123.491 62.0155 123.523 58.2864 121.415C54.5573 119.296 54.5356 115.818 58.2321 113.656C61.9286 111.482 67.9517 111.438 71.6808 113.558C75.4099 115.677 75.4317 119.155 71.7352 121.317Z" fill="#C4D9E8"/>
<path d="M178.814 263.11L104.916 220.638C99.9371 217.769 100.568 212.748 106.308 209.434L178.031 168.038C183.772 164.723 192.469 164.365 197.438 167.234L271.335 209.705C276.314 212.574 275.684 217.595 269.943 220.91L198.22 262.305C192.48 265.62 183.782 265.979 178.814 263.11Z" fill="#C4D9E8"/>
<path d="M265.453 166.821L252.679 159.453L299.777 132.272C302.005 130.99 302.005 128.903 299.777 127.61L251.657 99.8427C249.428 98.5603 245.808 98.5603 243.59 99.8427L196.492 127.023L183.717 119.655L230.815 92.4743C240.078 87.1274 255.168 87.1274 264.431 92.4743L312.551 120.242C321.825 125.589 321.825 134.294 312.551 139.641L265.453 166.821Z" fill="#5793CE"/>
<path d="M286.067 170.07C286.067 163.245 281.913 155.312 276.793 152.356L191.458 103.103C189.164 101.777 187.066 101.69 185.446 102.592L83.5527 161.778L182.086 235.995L282.468 177.754C282.783 177.613 283.077 177.45 283.359 177.243C285.034 175.972 286.077 173.483 286.077 170.07H286.067Z" fill="#D4ECFF"/>
<path d="M182.075 235.994L282.457 177.754C282.772 177.613 283.066 177.45 283.349 177.243C285.023 175.972 286.067 173.483 286.067 170.07C286.067 166.658 285.11 163.311 283.566 160.202L169.138 226.246L182.086 235.994H182.075Z" fill="#173D7A"/>
<path d="M175.661 235.734L90.3261 186.481C85.2054 183.525 81.0522 175.591 81.0522 168.766C81.0522 161.941 85.2054 158.801 90.3261 161.757L175.661 211.009C180.782 213.966 184.935 221.899 184.935 228.724C184.935 235.549 180.782 238.69 175.661 235.734Z" fill="#5793CE"/>
<path d="M162.875 219.117L152.612 213.205C151.59 212.618 150.764 211.031 150.764 209.673C150.764 208.314 151.59 207.684 152.612 208.271L162.875 214.183C163.897 214.77 164.723 216.357 164.723 217.715C164.723 219.073 163.897 219.704 162.875 219.117Z" fill="white"/>
<path d="M85.8359 45.6884L103.373 55.6433L121.257 45.145L121.214 40.5805L121.061 40.6783L121.04 40.3523L128.998 40.2979L128.955 35.7986L136.761 35.7443L136.706 31.2559L144.512 31.2016L144.469 26.7023L152.264 26.648L152.221 22.1595L160.56 22.0943L163.158 20.5728L166.017 8.78128L165.963 4.2168L164.582 8.58566L151.96 6.90115L85.8359 45.6884Z" fill="#396CAA"/>
<path d="M103.319 51.0788L121.214 40.5805L120.997 35.7878L128.955 35.7334L128.748 31.2342L136.707 31.1798L136.511 26.6914L144.469 26.6371L144.263 22.1378L152.221 22.0835L152.026 17.5951L160.517 17.5299L163.104 16.0084L165.964 4.2168L151.917 2.33667L85.793 41.1239L103.319 51.0788Z" fill="#D4ECFF"/>
<path d="M115.234 44.0908C113.429 41.5369 110.733 39.146 107.113 37.092C104.558 35.6466 101.72 34.4728 98.7086 33.5491L85.7817 41.1239L103.318 51.0788L115.234 44.0908Z" fill="#396CAA"/>
<path d="M165.485 6.19472L165.964 4.21678L163.604 3.90161L107.744 36.6681L110.679 38.3417L165.485 6.19472Z" fill="#5793CE"/>
<path d="M43.4569 60.0882L43.2612 53.6001L45.3378 57.9798L43.4569 60.0882Z" fill="#D3D0CF"/>
<path d="M54.2529 74.6838C68.5822 82.8238 91.7071 82.6608 105.917 74.3251C113.038 70.1519 116.572 64.7071 116.506 59.295L116.311 52.4265L115.147 53.7307C113.495 50.3399 110.364 47.1556 105.71 44.5148C91.381 36.3856 68.2561 36.5378 54.0463 44.8734C39.8365 53.209 39.9344 66.5547 54.2529 74.6947V74.6838ZM74.9424 62.5444C78.6715 64.6637 78.6933 68.1414 74.9968 70.3041C71.3003 72.4776 65.2771 72.5211 61.548 70.4019C57.8189 68.2826 57.7972 64.805 61.4937 62.6423C65.1902 60.4687 71.2133 60.4252 74.9424 62.5444Z" fill="#396CAA"/>
<path d="M54.0683 68.1956C68.3977 76.3248 91.5225 76.1726 105.732 67.837C119.942 59.5014 119.844 46.1557 105.526 38.0157C91.1964 29.8866 68.0715 30.0388 53.8617 38.3744C39.6519 46.71 39.7498 60.0556 54.0683 68.1956ZM74.7578 56.0563C78.4869 58.1755 78.5087 61.6532 74.8122 63.8159C71.1157 65.9895 65.0926 66.0329 61.3634 63.9137C57.6343 61.7945 57.6126 58.3168 61.3091 56.1541C65.0056 53.9805 71.0287 53.9371 74.7578 56.0563Z" fill="#F2F2F2"/>
<path d="M70.6697 71.7494C67.5168 72.2384 64.0269 71.8146 61.5481 70.4018C58.8735 68.8803 58.1125 66.6632 59.2541 64.7288L52.7634 59.5883C52.7634 59.5883 49.3714 55.7628 46.0119 51.97C40.7824 59.61 43.5331 68.5977 54.242 74.6837C58.9605 77.368 64.2552 78.8895 70.2674 79.7698L70.6588 71.7494H70.6697Z" fill="#5793CE"/>
<path d="M54.0683 68.1956C57.2864 70.0214 60.9394 71.4342 64.8425 72.4232C67.604 73.1188 70.4742 73.6187 73.4097 73.9012C84.8036 75.0098 96.9694 72.9775 105.732 67.837C119.942 59.5014 119.844 46.1557 105.526 38.0157C91.1964 29.8866 68.0715 30.0388 53.8617 38.3744C39.6519 46.71 39.7498 60.0556 54.0683 68.1956ZM74.7578 56.0563C78.4869 58.1755 78.5087 61.6532 74.8122 63.8159C71.1157 65.9895 65.0926 66.0329 61.3634 63.9137C57.6343 61.7945 57.6126 58.3168 61.3091 56.1541C65.0056 53.9805 71.0287 53.9371 74.7578 56.0563Z" fill="#D4ECFF"/>
<path d="M47.2948 53.4262C47.9906 49.2747 51.0783 45.2101 56.5578 41.9933C69.202 34.5814 89.7828 34.4401 102.525 41.6672C108.863 45.2645 112.06 50.0028 112.136 54.7738C113.049 49.3508 109.896 43.7756 102.677 39.6784C89.935 32.4405 69.3542 32.5817 56.71 40.0045C50.3499 43.7321 47.2187 48.59 47.2948 53.4262Z" fill="#396CAA"/>
<path d="M38.6731 112.438C36.0965 112.438 33.6829 111.83 31.5085 110.591C26.3768 107.678 23.5175 101.831 23.4631 94.1153C23.3653 80.0415 33.161 62.8052 45.3051 55.6759C51.9588 51.7743 58.4494 51.2309 63.581 54.1435C65.7663 55.3824 67.5602 57.1756 68.8975 59.4579C70.6805 62.49 71.5937 66.2503 71.6264 70.63C71.7242 84.7038 61.9285 101.94 49.7844 109.069C45.9466 111.319 42.1739 112.449 38.6731 112.449V112.438ZM56.3946 57.4691C53.8179 57.4691 50.926 58.3602 47.9144 60.1317C37.1945 66.4241 28.5404 81.6499 28.6274 94.0827C28.6708 99.8753 30.5952 104.146 34.0525 106.103C37.5098 108.07 42.1631 107.537 47.1642 104.603C57.8949 98.3103 66.5382 83.0845 66.4513 70.6517C66.4295 67.2392 65.7337 64.2723 64.4291 62.0661C63.5593 60.5773 62.4068 59.4144 61.0152 58.6319C59.6453 57.8494 58.0798 57.4691 56.3837 57.4691H56.3946Z" fill="#396CAA"/>
<path d="M63.1463 68.8911L73.3443 71.3907L74.812 63.8267C71.1155 66.0002 65.0924 66.0437 61.3633 63.9245L63.1463 68.9019V68.8911Z" fill="#D4ECFF"/>
<path d="M54.0679 68.1956C57.286 70.0214 60.939 71.4342 64.8421 72.4232C67.6036 73.1187 70.4738 73.6186 73.4093 73.9012C84.8032 75.0097 96.969 72.9774 105.732 67.837L64.2006 66.9023L54.0679 68.1956Z" fill="#D4ECFF"/>
<path d="M69.4086 73.4339C69.4086 73.4339 64.9945 72.7166 60.3848 71.1082V77.4767C62.5809 78.2374 66.2013 79.346 69.2999 79.7589C78.8129 81.0196 69.4086 73.4339 69.4086 73.4339Z" fill="#396CAA"/>
<path d="M62.7875 71.8798C60.8848 71.3256 58.8191 70.6083 56.9165 69.7172C51.3609 67.1197 58.3843 76.7486 58.3843 76.7486C58.3843 76.7486 60.276 77.4985 62.7875 78.2701V71.8798Z" fill="#5793CE"/>
<path d="M166.985 183.796L148.807 195.512L139.968 194.077L161.571 183.633L166.985 183.796Z" fill="#5793CE"/>
<path d="M145.013 242.95C145.013 242.95 139.783 240.309 136.565 244.243C133.347 248.177 128.759 257.447 128.618 263.718C128.476 269.989 133.575 269.565 136.609 268.076C139.642 266.598 148.503 253.741 149.046 251.22C149.579 248.699 148.416 245.297 147.557 244.634C146.709 243.971 145.013 242.95 145.013 242.95Z" fill="#173D7A"/>
<path d="M146.154 241.689L146.394 247.112C146.448 248.264 145.861 249.362 144.861 249.927C143.947 250.449 142.621 250.84 140.827 250.557C136.881 249.927 136.533 248.797 136.25 243.374C135.967 237.951 146.154 241.689 146.154 241.689Z" fill="#5793CE"/>
<path d="M125.856 232.528C125.856 232.528 120.627 229.887 117.409 233.821C114.191 237.755 109.603 247.025 109.461 253.296C109.32 259.567 114.419 259.143 117.452 257.654C120.486 256.176 129.346 243.319 129.89 240.798C130.423 238.277 129.259 234.875 128.4 234.212C127.542 233.549 125.856 232.528 125.856 232.528Z" fill="#173D7A"/>
<path d="M126.998 231.267L127.237 236.69C127.291 237.842 126.704 238.94 125.704 239.505C124.791 240.026 123.464 240.418 121.67 240.135C117.724 239.505 117.376 238.374 117.093 232.951C116.811 227.528 126.998 231.267 126.998 231.267Z" fill="#5793CE"/>
<path d="M173.704 131.739C172.16 106.537 146.404 135.445 146.404 135.445L128.781 152.714L112.908 170.146C109.809 173.548 108.363 178.145 108.961 182.709L115.386 231.571C115.702 233.984 117.767 235.766 120.203 235.744C120.888 235.744 121.681 235.679 122.584 235.538C128.313 234.647 127.889 229.202 127.889 229.202L126.715 183.503L160.049 163.419C160.049 163.419 175.259 156.942 173.704 131.75V131.739Z" fill="#D4ECFF"/>
<path d="M139.446 174.863L134.706 173.124C134.597 173.124 126.639 180.808 126.715 183.503L130.281 184.644L139.24 175.95L139.446 174.863Z" fill="#5793CE"/>
<path d="M166.985 183.796C166.985 183.796 186.794 172.494 189.164 167.755C190.088 165.897 191.534 163.963 185.761 161.159L159.342 179.982L160.484 186.459L166.985 183.807V183.796Z" fill="#5793CE"/>
<path d="M192.861 141.466C191.208 116.275 165.561 145.172 165.561 145.172L147.938 162.441L132.064 179.873C128.966 183.275 127.52 187.872 128.118 192.436L134.543 241.298C134.858 243.71 136.924 245.493 139.36 245.471C140.044 245.471 140.838 245.406 141.741 245.265C147.47 244.373 147.046 238.929 147.046 238.929L145.872 193.229L179.206 173.146C179.206 173.146 194.372 164.506 192.861 141.477V141.466Z" fill="#D4ECFF"/>
<path d="M177.629 60.4576C197.155 68.5433 196.764 80.0849 196.764 80.0849C196.764 80.0849 192.937 122.372 194.241 150.617C194.785 162.419 131.488 163.321 140.925 131.827C152.058 94.6803 147.883 64.62 153.091 60.0881C158.298 55.5562 172.573 58.371 177.629 60.4576Z" fill="#5793CE"/>
<path d="M183.913 70.6842C182.891 74.651 177.694 76.7376 172.312 75.3465C166.931 73.9554 163.387 69.6192 164.408 65.6633C165.43 61.7074 170.627 59.6099 176.009 61.001C181.391 62.3921 184.935 66.7283 183.913 70.6842Z" fill="#FFC2B0"/>
<path d="M175.607 76.7049C174.465 76.7049 173.269 76.5636 172.073 76.2484C169.279 75.5312 166.844 74.0423 165.224 72.0535C163.539 69.9886 162.93 67.6303 163.495 65.4241C164.637 60.9683 170.355 58.5774 176.226 60.088C179.02 60.8053 181.456 62.2942 183.065 64.283C184.75 66.3479 185.37 68.7062 184.793 70.9123C183.88 74.4553 180.064 76.7049 175.585 76.7049H175.607ZM172.671 61.5008C169.051 61.5008 166.017 63.1853 165.311 65.8914C164.898 67.5107 165.376 69.2822 166.681 70.8797C168.05 72.5534 170.127 73.8249 172.541 74.4444C177.422 75.6942 182.108 73.9119 183 70.4559C183.413 68.8366 182.934 67.0651 181.63 65.4676C180.26 63.7939 178.183 62.5224 175.77 61.9029C174.715 61.6312 173.66 61.5008 172.66 61.5008H172.671Z" fill="white"/>
<path d="M169.801 59.5772C169.801 59.5772 169.975 60.3596 169.627 66.5434C169.519 68.4888 176.335 70.3037 178.086 68.5431C179.847 66.7825 179.14 64.9567 179.564 58.3382C179.988 51.7197 169.79 59.5772 169.79 59.5772H169.801Z" fill="#FFC2B0"/>
<path d="M179.575 58.3384C179.575 58.3384 177.901 64.4678 169.627 66.8261L169.757 61.251L179.575 58.3384Z" fill="#EA9C92"/>
<path d="M184.815 42.7537C186.892 50.7851 182.065 58.9794 174.03 61.0551C165.996 63.1309 157.798 58.3056 155.722 50.2743C153.645 42.243 158.472 34.0486 166.507 31.9729C174.541 29.8971 182.739 34.7224 184.815 42.7537Z" fill="#FFC2B0"/>
<path d="M173.715 47.0576C173.715 47.0576 165.441 50.6005 159.712 50.644C153.982 50.6874 155.243 45.8839 155.243 45.8839L172.247 43.4277L173.715 47.0576Z" fill="#EA9C92"/>
<path d="M158.005 47.9921C158.005 47.9921 165.213 44.9383 171.53 46.2098C173.019 46.5141 174.389 47.3074 175.346 48.4812C175.661 48.8615 176.053 49.2202 176.499 49.318C177.618 49.568 179.456 44.9165 181.63 44.8187C183.805 44.71 185.261 46.2533 183.478 49.1115C181.695 51.9697 182.293 55.1757 183.12 55.6322C183.946 56.0886 192.665 49.4158 184.968 34.1791C177.27 18.9425 157.733 27.1477 154.7 30.2341C154.7 30.2341 151.504 33.0271 148.894 30.5384C148.894 30.5384 145.981 52.3936 157.994 47.9813L158.005 47.9921Z" fill="#FF2C9C"/>
<path d="M185.805 110.982V122.404C185.805 123.708 185.25 124.958 184.282 125.849L160.799 147.248L163.462 151.323L194.48 128.838C195.926 127.784 196.861 126.175 197.046 124.393L199.145 104.461L185.805 110.971V110.982Z" fill="#FFC2B0"/>
<path d="M195.111 74.3684C195.111 74.3684 202.233 85.0841 204.885 113.275C204.885 113.275 192.719 117.209 185.805 114.981C178.901 112.743 195.1 74.3793 195.1 74.3793L195.111 74.3684Z" fill="#5793CE"/>
<path d="M184.511 87.9097C184.511 87.9097 181.717 102.831 181.565 109.841C181.521 111.765 182.695 113.503 184.511 114.166V87.9097Z" fill="#396CAA"/>
<path d="M178.412 162.104L173.226 161.42L139.718 142.086C138.642 141.466 136.772 141.542 135.532 142.26L111.788 155.953L108.646 155.54V158.659C108.624 159.072 108.863 159.463 109.363 159.757L147.34 181.666C148.416 182.286 150.286 182.21 151.525 181.492L177.379 166.571C178.075 166.169 178.423 165.647 178.401 165.158V162.082L178.412 162.104Z" fill="#173D7A"/>
<path d="M153.243 149.889L150.862 148.52H124.693L111.788 155.964L108.646 155.551V158.67C108.624 159.083 108.863 159.474 109.363 159.768L147.34 181.677C147.905 182.003 148.699 182.134 149.503 182.079L153.232 149.878L153.243 149.889Z" fill="#396CAA"/>
<path d="M110.038 155.725L108.646 155.54V158.659C108.624 159.072 108.863 159.463 109.363 159.757L110.038 160.148V155.725Z" fill="#5793CE"/>
<path d="M147.731 181.862C148.753 182.253 150.21 182.166 151.297 181.644V176.33H147.731V181.862Z" fill="#274F89"/>
<path d="M147.339 178.558L109.363 156.649C108.287 156.029 108.428 154.942 109.668 154.225L135.522 139.304C136.761 138.586 138.642 138.51 139.707 139.13L177.683 161.039C178.76 161.659 178.618 162.745 177.379 163.463L151.525 178.384C150.286 179.101 148.405 179.178 147.339 178.558Z" fill="white"/>
<path d="M146.698 175.233L115.126 157.007C114.234 156.496 114.343 155.594 115.376 154.997L129.227 147.204C130.26 146.607 131.814 146.541 132.717 147.063L164.289 165.288C165.181 165.799 165.072 166.701 164.039 167.299L150.188 175.091C149.155 175.689 147.601 175.754 146.698 175.233Z" fill="#D4ECFF"/>
<path d="M137 138.586L136.609 141.205C136.272 143.433 136.337 145.705 136.783 147.922L137.25 150.226C137.511 151.53 138.544 152.54 139.849 152.779C140.871 152.964 141.838 152.247 141.947 151.214L142.578 145.618C142.578 145.618 144.013 147.498 144.698 147.498C145.383 147.498 143.926 141.89 142.36 138.717C140.795 135.543 137 138.586 137 138.586Z" fill="#FFC2B0"/>
<path d="M149.873 96.9624L145.796 105.026C144.828 106.928 144.263 109.015 144.132 111.145L142.36 138.717L137 138.586L134.565 107.624C134.489 106.667 134.532 105.711 134.706 104.766L137.489 89.0615L149.873 96.9624Z" fill="#FFC2B0"/>
<path d="M146.057 180.666L142.871 176.515L109.385 157.138C108.309 156.518 107.439 154.855 107.45 153.421L107.482 126.023L105.558 123.513L107.363 122.469C107.711 122.252 108.167 122.252 108.678 122.545L146.622 144.509C147.698 145.129 148.568 146.791 148.557 148.226L148.524 178.069C148.524 178.873 148.253 179.438 147.818 179.656L146.057 180.677V180.666Z" fill="#173D7A"/>
<path d="M122.899 164.952L120.518 163.571L107.461 140.901V126.012L105.547 123.502L107.352 122.459C107.7 122.241 108.157 122.241 108.668 122.535L146.611 144.498C147.176 144.824 147.687 145.444 148.046 146.172L122.899 164.963V164.952Z" fill="#396CAA"/>
<path d="M106.406 124.61L105.547 123.491L107.352 122.448C107.7 122.23 108.157 122.23 108.668 122.524L109.342 122.915L106.406 124.61Z" fill="#5793CE"/>
<path d="M146.97 144.737C147.807 145.422 148.47 146.726 148.557 147.932L144.85 150.073L143.078 146.987L146.981 144.737H146.97Z" fill="#274F89"/>
<path d="M144.817 145.542L106.874 123.578C105.797 122.958 104.928 123.61 104.928 125.045L104.895 154.888C104.895 156.322 105.765 157.985 106.83 158.605L144.774 180.568C145.85 181.188 146.72 180.536 146.72 179.101L146.752 149.258C146.752 147.824 145.883 146.161 144.817 145.542Z" fill="#5793CE"/>
<path d="M163.474 151.323L162.865 152.584C162.169 154.029 161.06 155.257 159.69 156.094L155.918 158.42C154.743 159.137 153.265 159.202 152.069 158.507C152.025 158.485 151.982 158.453 151.938 158.431C150.743 157.681 150.634 155.964 151.623 154.953L155.559 150.91C155.559 150.91 153.341 152.606 152.721 151.921C152.265 151.421 154.863 148.976 156.864 148.9C158.864 148.824 160.788 147.248 160.788 147.248L163.452 151.323H163.474Z" fill="#FFC2B0"/>
<path d="M153.482 60.0227C153.482 60.0227 139.044 75.7267 133.217 90.1374C133.217 90.1374 138.153 99.0273 150.242 102.516C162.332 106.004 153.482 60.0227 153.482 60.0227Z" fill="#5793CE"/>
<path d="M147.524 101.581L149.862 78.9871L144.35 100.158C145.328 100.668 146.394 101.147 147.524 101.581Z" fill="#396CAA"/>
<path d="M164.3 56.8495L160.418 55.7844C160.418 55.7844 162.267 58.697 164.974 59.436C167.681 60.175 168.094 57.8928 168.094 57.8928L164.289 56.8495H164.3Z" fill="white"/>
<path d="M90.6636 22.1377C84.6731 22.1377 79.7915 17.2689 79.7915 11.2699C79.7915 5.27088 84.6731 0.4021 90.6636 0.4021C96.6541 0.4021 101.536 5.27088 101.536 11.2699C101.536 17.2689 96.6649 22.1377 90.6636 22.1377ZM90.6636 2.78215C85.9777 2.78215 82.1725 6.58588 82.1725 11.2699C82.1725 15.9539 85.9777 19.7577 90.6636 19.7577C95.3494 19.7577 99.1546 15.9539 99.1546 11.2699C99.1546 6.58588 95.3494 2.78215 90.6636 2.78215Z" fill="#D4ECFF"/>
<path d="M310.366 100.419C306.115 100.419 302.658 96.9626 302.658 92.7133C302.658 88.464 306.115 85.0081 310.366 85.0081C314.617 85.0081 318.074 88.464 318.074 92.7133C318.074 96.9626 314.617 100.419 310.366 100.419ZM310.366 87.3772C307.42 87.3772 305.028 89.7682 305.028 92.7133C305.028 95.6585 307.42 98.0494 310.366 98.0494C313.312 98.0494 315.704 95.6585 315.704 92.7133C315.704 89.7682 313.312 87.3772 310.366 87.3772Z" fill="#5793CE"/>
<path d="M57.6884 239.592L52.459 228.952L63.1027 223.725L68.3322 234.364L57.6884 239.592ZM55.6336 230.039L58.7756 236.418L65.1576 233.277L62.0155 226.898L55.6336 230.039Z" fill="#5793CE"/>
<path d="M212.093 74.7596L206.864 64.12L217.508 58.8926L222.737 69.5322L212.093 74.7596ZM210.038 65.2068L213.18 71.5862L219.562 68.4454L216.42 62.066L210.038 65.2068Z" fill="#5793CE"/>
<path d="M43.3945 174.732L38.5063 177.134L40.9095 182.02L45.7976 179.618L43.3945 174.732Z" fill="#5793CE"/>
<path d="M235.088 17.0515L206.016 0.271604C205.44 -0.0652982 204.918 -0.076166 204.516 0.152058V0.130322L201.7 1.76049C201.7 1.76049 202.95 2.21694 203.678 2.48864V23.6483C203.678 25.3654 204.722 27.3651 206.016 28.1149L233.805 44.1558V46.6337L236.653 44.9926H236.643C237.121 44.6883 237.436 44.0471 237.436 43.1234V21.5182C237.436 19.8011 236.392 17.8014 235.099 17.0515H235.088Z" fill="#D3008D"/>
<path d="M232.217 46.5467L203.146 29.7668C201.852 29.0169 200.808 27.0173 200.808 25.3001V3.69494C200.808 1.97783 201.852 1.18448 203.146 1.92349L232.217 18.7034C233.511 19.4533 234.555 21.4529 234.555 23.1701V44.7753C234.555 46.4924 233.511 47.2857 232.217 46.5467Z" fill="#FF2C9C"/>
<path d="M212.92 22.3224C212.92 23.5722 212.039 24.083 210.963 23.4527C209.876 22.8223 209.006 21.3117 209.006 20.0619C209.006 18.8121 209.886 18.3013 210.963 18.9317C212.05 19.562 212.92 21.0726 212.92 22.3224Z" fill="white"/>
<path d="M218.867 25.7568C218.867 27.0066 217.986 27.5173 216.91 26.887C215.833 26.2567 214.953 24.7461 214.953 23.4963C214.953 22.2465 215.833 21.7357 216.91 22.366C217.997 22.9963 218.867 24.507 218.867 25.7568Z" fill="white"/>
<path d="M224.814 29.1801C224.814 30.4299 223.933 30.9407 222.857 30.3103C221.77 29.68 220.9 28.1694 220.9 26.9196C220.9 25.6698 221.781 25.159 222.857 25.7893C223.944 26.4197 224.814 27.9303 224.814 29.1801Z" fill="white"/>
<path d="M34.1286 200.881L5.6112 184.427C5.04585 184.101 4.53486 184.09 4.1326 184.307V184.285L1.37109 185.883C1.37109 185.883 2.59964 186.329 3.31719 186.589V207.347C3.31719 209.031 4.33917 210.998 5.6112 211.727L32.8674 227.463V229.898L35.6616 228.289H35.6507C36.1182 227.996 36.4226 227.365 36.4226 226.452V205.26C36.4226 203.576 35.4006 201.609 34.1286 200.881Z" fill="#5793CE"/>
<path d="M31.3129 229.822L2.79547 213.368C1.52344 212.64 0.501465 210.672 0.501465 208.988V187.796C0.501465 186.111 1.52344 185.329 2.79547 186.057L31.3129 202.511C32.5849 203.239 33.6069 205.206 33.6069 206.89V228.083C33.6069 229.767 32.5849 230.55 31.3129 229.822Z" fill="#D4ECFF"/>
<path d="M12.3848 206.054C12.3848 207.282 11.5259 207.782 10.4605 207.162C9.39503 206.554 8.53613 205.054 8.53613 203.826C8.53613 202.598 9.39503 202.098 10.4605 202.717C11.5259 203.326 12.3848 204.826 12.3848 206.054Z" fill="white"/>
<path d="M18.2125 209.423C18.2125 210.651 17.3536 211.151 16.2881 210.531C15.2227 209.922 14.3638 208.423 14.3638 207.195C14.3638 205.967 15.2227 205.467 16.2881 206.086C17.3536 206.695 18.2125 208.194 18.2125 209.423Z" fill="white"/>
<path d="M24.0504 212.781C24.0504 214.009 23.1915 214.509 22.126 213.889C21.0606 213.281 20.2017 211.781 20.2017 210.553C20.2017 209.325 21.0606 208.825 22.126 209.444C23.1915 210.053 24.0504 211.553 24.0504 212.781Z" fill="white"/>
</g>
<defs>
<clipPath id="clip0_77_27882">
<rect width="319" height="269" fill="white" transform="translate(0.5)"/>
</clipPath>
</defs>
</svg>
